<svg width="26" height="22" viewBox="0 0 26 22" fill="none" xmlns="http://www.w3.org/2000/svg">
<path d="M12.6667 6C13.5 2.71042 16.6474 1.03074 23.5 1.00001C23.6095 0.999593 23.7181 1.02087 23.8194 1.0626C23.9207 1.10433 24.0127 1.1657 24.0902 1.24316C24.1676 1.32063 24.229 1.41266 24.2707 1.51395C24.3125 1.61524 24.3337 1.72379 24.3333 1.83334V16.8333C24.3333 17.0543 24.2455 17.2663 24.0893 17.4226C23.933 17.5789 23.721 17.6667 23.5 17.6667C16.8333 17.6667 14.2578 19.0109 12.6667 21M12.6667 6C11.8333 2.71042 8.68594 1.03074 1.83334 1.00001C1.72379 0.999593 1.61524 1.02087 1.51395 1.0626C1.41266 1.10433 1.32063 1.1657 1.24316 1.24316C1.1657 1.32063 1.10433 1.41266 1.0626 1.51395C1.02087 1.61524 0.999593 1.72379 1.00001 1.83334V16.7328C1.00001 17.2474 1.31876 17.6667 1.83334 17.6667C8.5 17.6667 11.0849 19.0208 12.6667 21M12.6667 6V21" stroke="black" stroke-width="1.875" stroke-linecap="round" stroke-linejoin="round"/>
</svg>
