<svg width="25" height="22" viewBox="0 0 25 22" fill="none" xmlns="http://www.w3.org/2000/svg">
<path fill-rule="evenodd" clip-rule="evenodd" d="M9.8358 0.643834C10.7206 0.219912 11.6875 0 12.6667 0C13.6459 0 14.6128 0.219912 15.4976 0.643834L22.9655 4.18402C24.142 4.73907 24.6667 5.94847 24.6667 7.05181C24.6667 8.15516 24.142 9.36455 22.9666 9.92074L21.3179 10.7014V16.2182C21.3179 17.6317 20.6168 18.9968 19.3398 19.7121C18.5004 20.1814 17.3975 20.7466 16.2365 21.1967C15.0901 21.6412 13.8209 22 12.6667 22C11.5125 22 10.2432 21.6412 9.09571 21.1967C7.93478 20.7466 6.83301 20.1814 5.99357 19.7121C4.71655 18.9968 4.01552 17.6317 4.01552 16.2182V10.7014L2.36678 9.91961L2.34111 9.90833V13.2567C2.34111 13.4811 2.2529 13.6963 2.09589 13.855C1.93889 14.0137 1.72594 14.1028 1.5039 14.1028C1.28185 14.1028 1.06891 14.0137 0.9119 13.855C0.754893 13.6963 0.666687 13.4811 0.666687 13.2567V7.05181C0.666687 5.94847 1.19245 4.73907 2.36678 4.18402L9.8358 0.643834ZM5.68994 11.4957V16.2193C5.68994 17.0801 6.11301 17.845 6.80511 18.2331C7.73673 18.76 8.70267 19.2225 9.69627 19.6173C10.7712 20.0347 11.8161 20.3089 12.6667 20.3089C13.5173 20.3089 14.5621 20.0347 15.6382 19.6173C16.6318 19.2225 17.5978 18.76 18.5294 18.2331C19.2215 17.845 19.6434 17.0801 19.6434 16.2193V11.4957L15.4976 13.4598C14.6128 13.8837 13.6459 14.1036 12.6667 14.1036C11.6875 14.1036 10.7206 13.8837 9.8358 13.4598L5.68994 11.4945V11.4957ZM3.07785 8.38756C2.62799 8.17434 2.34111 7.66553 2.34111 7.05181C2.34111 6.43809 2.62799 5.92929 3.07785 5.71606L10.5469 2.17701C11.2091 1.85856 11.9333 1.69333 12.6667 1.69333C13.4001 1.69333 14.1242 1.85856 14.7865 2.17701L22.2555 5.71606C22.7054 5.92929 22.9923 6.43809 22.9923 7.05181C22.9923 7.66553 22.7054 8.17434 22.2555 8.38756L14.7865 11.9266C14.1242 12.2451 13.4001 12.4103 12.6667 12.4103C11.9333 12.4103 11.2091 12.2451 10.5469 11.9266L3.07785 8.38756Z" fill="black"/>
</svg>
