<svg width="23" height="24" viewBox="0 0 23 24" fill="none" xmlns="http://www.w3.org/2000/svg">
<path d="M21.3333 22L16.5078 17.1745M16.5078 17.1745C17.3333 16.3491 17.988 15.3692 18.4347 14.2907C18.8815 13.2122 19.1114 12.0563 19.1114 10.889C19.1114 9.72169 18.8815 8.5658 18.4347 7.48734C17.988 6.40887 17.3333 5.42895 16.5078 4.60353C15.6824 3.77811 14.7025 3.12335 13.624 2.67664C12.5456 2.22992 11.3897 2 10.2224 2C9.05504 2 7.89915 2.22992 6.82068 2.67664C5.74222 3.12335 4.7623 3.77811 3.93688 4.60353C2.26986 6.27055 1.33334 8.5315 1.33334 10.889C1.33334 13.2465 2.26986 15.5075 3.93688 17.1745C5.60389 18.8415 7.86485 19.778 10.2224 19.778C12.5799 19.778 14.8408 18.8415 16.5078 17.1745Z" stroke="black" stroke-width="2.5" stroke-linecap="round" stroke-linejoin="round"/>
</svg>
